<?xml version="1.0" ?><!DOCTYPE svg  PUBLIC '-//W3C//DTD SVG 1.1//EN'  'http://www.w3.org/Graphics/SVG/1.1/DTD/svg11.dtd'><svg height="2048px" style="shape-rendering:geometricPrecision; text-rendering:geometricPrecision; image-rendering:optimizeQuality; fill-rule:evenodd; clip-rule:evenodd" viewBox="0 0 2048 2048" width="2048px" xml:space="preserve" xmlns="http://www.w3.org/2000/svg" xmlns:xlink="http://www.w3.org/1999/xlink"><defs><style type="text/css">
   <![CDATA[
    .fil7 {fill:none}
    .fil5 {fill:#666666}
    .fil6 {fill:#676767}
    .fil4 {fill:#93816D}
    .fil3 {fill:#C37731}
    .fil1 {fill:#E93D01}
    .fil2 {fill:#EC5700}
    .fil0 {fill:#F32E1D}
   ]]>
  </style></defs><g id="Layer_x0020_1"><g id="_337751568"><polygon class="fil0" id="_337752792" points="1530.57,259.218 1667.71,884.528 1573.91,904.787 1436.76,279.476 "/><polygon class="fil1" id="_337752840" points="1149.94,410.179 1528.33,926.553 1450.96,983.26 1072.58,466.887 "/><polygon class="fil2" id="_337752288" points="857.361,695.665 1413.5,1012.73 1366.17,1096.14 810.024,779.072 "/><polygon class="fil3" id="_337752408" points="711.56,991.947 1328.38,1163.29 1302.83,1255.72 686.011,1084.38 "/><polygon class="fil4" id="_337752384" points="666.821,1240.07 1303.38,1308.01 1293.24,1403.4 656.678,1335.46 "/><polygon class="fil5" id="_337751640" points="643.06,1484.44 1283.23,1484.44 1283.23,1580.44 643.06,1580.44 "/><polygon class="fil6" id="_337751496" points="567.932,1724.61 1358.36,1724.61 1358.36,1164.43 1454.36,1164.43 1454.36,1820.6 471.935,1820.6 471.935,1164.43 567.932,1164.43 "/></g></g><rect class="fil7" height="2048" width="2048"/></svg>