<?xml version="1.0" encoding="UTF-8"?>
<svg xmlns="http://www.w3.org/2000/svg" xmlns:xlink="http://www.w3.org/1999/xlink" width="45pt" height="30pt" viewBox="0 0 45 30" version="1.1">
<g id="surface1">
<path style=" stroke:none;fill-rule:nonzero;fill:rgb(0%,43.921569%,81.960784%);fill-opacity:1;" d="M 10.113281 19.582031 C 9.144531 20.226562 9.464844 21.453125 11.53125 22.03125 C 13.660156 22.742188 15.984375 22.933594 18.242188 22.546875 C 18.371094 22.546875 18.5 22.484375 18.5625 22.484375 L 18.5625 20.289062 L 16.371094 21 C 15.53125 21.257812 14.691406 21.324219 13.855469 21.128906 C 13.207031 20.933594 13.335938 20.546875 14.113281 20.226562 L 18.5625 18.675781 L 18.5625 16.289062 L 12.371094 18.417969 C 11.597656 18.675781 10.820312 19.066406 10.113281 19.582031 Z M 25.078125 9.902344 L 25.078125 16.160156 C 27.726562 17.453125 29.789062 16.160156 29.789062 12.804688 C 29.789062 9.386719 28.5625 7.839844 25.015625 6.613281 C 23.144531 5.96875 21.207031 5.386719 19.273438 5 L 19.273438 23.644531 L 23.789062 25 L 23.789062 9.324219 C 23.789062 8.613281 23.789062 8.097656 24.304688 8.289062 C 25.015625 8.484375 25.078125 9.195312 25.078125 9.902344 Z M 33.464844 18.097656 C 31.597656 17.453125 29.597656 17.195312 27.660156 17.386719 C 26.628906 17.453125 25.660156 17.710938 24.757812 18.03125 L 24.5625 18.097656 L 24.5625 20.613281 L 28.757812 19.066406 C 29.597656 18.804688 30.433594 18.742188 31.273438 18.933594 C 31.917969 19.128906 31.789062 19.515625 31.015625 19.839844 L 24.5625 22.226562 L 24.5625 24.675781 L 33.464844 21.386719 C 34.113281 21.128906 34.691406 20.804688 35.207031 20.289062 C 35.660156 19.644531 35.464844 18.742188 33.464844 18.097656 Z M 33.464844 18.097656 "/>
</g>
</svg>
